HIERARCHY
ROOT SpineBase
{
  OFFSET 0.000000 0.000000 0.000000
  CHANNELS 6 Xposition Yposition Zposition Zrotation Xrotation Yrotation
  JOINT SpineMid
  {
    OFFSET 0.000000 28.101206 0.000000
    CHANNELS 3 Zrotation Xrotation Yrotation
    JOINT SpineShoulder
    {
      OFFSET -0.069283 20.950119 -0.600387
      CHANNELS 3 Zrotation Xrotation Yrotation
      JOINT Neck
      {
        OFFSET -0.050344 6.953957 -0.470758
        CHANNELS 3 Zrotation Xrotation Yrotation
        JOINT Head
        {
          OFFSET 4.008247 11.752140 2.334778
          CHANNELS 3 Zrotation Xrotation Yrotation
          End Site
          {
            OFFSET 0 0 0
          }
        }
      }
      JOINT ShoulderLeft
      {
        OFFSET -12.209791 -3.141118 -8.852186
        CHANNELS 3 Zrotation Xrotation Yrotation
        JOINT ElbowLeft
        {
          OFFSET -6.095414 -21.459264 -4.842347
          CHANNELS 3 Zrotation Xrotation Yrotation
          JOINT WristLeft
          {
            OFFSET 1.455336 -21.836610 -3.489336
            CHANNELS 3 Zrotation Xrotation Yrotation
            JOINT HandLeft
            {
              OFFSET 2.427244 -7.423457 -0.600637
              CHANNELS 3 Zrotation Xrotation Yrotation
              JOINT HandTipLeft
              {
                OFFSET 0.807601 -6.107747 -1.407218
                CHANNELS 3 Zrotation Xrotation Yrotation
                End Site
                {
                  OFFSET 0 0 0
                }
              }
              JOINT ThumbLeft
              {
                OFFSET -1.911955 -1.352694 -2.467338
                CHANNELS 3 Zrotation Xrotation Yrotation
                End Site
                {
                  OFFSET 0 0 0
                }
              }
            }
          }
        }
      }
      JOINT ShoulderRight
      {
        OFFSET 12.741944 -6.847586 6.925851
        CHANNELS 3 Zrotation Xrotation Yrotation
        JOINT ElbowRight
        {
          OFFSET 1.388716 -26.636082 4.015886
          CHANNELS 3 Zrotation Xrotation Yrotation
          JOINT WristRight
          {
            OFFSET 0.362183 -20.792803 -5.645267
            CHANNELS 3 Zrotation Xrotation Yrotation
            JOINT HandRight
            {
              OFFSET -1.589225 -5.568184 -1.368268
              CHANNELS 3 Zrotation Xrotation Yrotation
              JOINT HandTipRight
              {
                OFFSET 0.211330 -5.147940 -0.155086
                CHANNELS 3 Zrotation Xrotation Yrotation
                End Site
                {
                  OFFSET 0 0 0
                }
              }
              JOINT ThumbRight
              {
                OFFSET -2.848316 0.882647 -2.028380
                CHANNELS 3 Zrotation Xrotation Yrotation
                End Site
                {
                  OFFSET 0 0 0
                }
              }
            }
          }
        }
      }
    }
  }
  JOINT HipLeft
  {
    OFFSET -5.567610 1.684082 -6.326267
    CHANNELS 3 Zrotation Xrotation Yrotation
    JOINT KneeLeft
    {
      OFFSET -11.231520 -30.973169 2.004899
      CHANNELS 3 Zrotation Xrotation Yrotation
      JOINT AnkleLeft
      {
        OFFSET -4.554203 -28.920114 6.371918
        CHANNELS 3 Zrotation Xrotation Yrotation
        JOINT FootLeft
        {
          OFFSET 4.294106 -3.684687 -10.635911
          CHANNELS 3 Zrotation Xrotation Yrotation
          End Site
          {
            OFFSET 0 0 0
          }
        }
      }
    }
  }
  JOINT HipRight
  {
    OFFSET 5.019460 0.153746 0.234596
    CHANNELS 3 Zrotation Xrotation Yrotation
    JOINT KneeRight
    {
      OFFSET -7.327790 -30.115600 4.963897
      CHANNELS 3 Zrotation Xrotation Yrotation
      JOINT AnkleRight
      {
        OFFSET -11.696709 -30.983529 6.418867
        CHANNELS 3 Zrotation Xrotation Yrotation
        JOINT FootRight
        {
          OFFSET 4.396483 -3.631245 -10.572153
          CHANNELS 3 Zrotation Xrotation Yrotation
          End Site
          {
            OFFSET 0 0 0
          }
        }
      }
    }
  }
}
MOTION
Frames: 9
Frame Time: 0.033333
27.616957 68.543705 320.915851 -1.389017 -0.409882 -34.812841 0.343150 -0.444155 34.760107 0.021589 -0.254132 -0.060429 -2.659805 -3.704011 2.467445 0.000000 0.000000 0.000000 0.315925 -1.539603 1.102327 8.596245 4.994070 -2.577600 -3.758017 1.516723 1.885835 6.387311 8.103980 -2.145051 0.000000 0.000000 0.000000 0.000000 0.000000 0.000000 2.315455 -2.770095 0.036709 1.052825 3.728076 -0.595995 11.871268 12.302811 -7.913903 -19.938132 -4.381665 4.886504 0.000000 0.000000 0.000000 0.000000 0.000000 0.000000 0.206140 5.022837 33.630175 -1.733117 -10.270846 2.106815 -6.003177 -14.453679 -20.194221 0.000000 0.000000 0.000000 6.240192 10.163201 34.775368 -10.232253 -11.683365 1.671629 -3.588340 -1.621127 -1.349586 0.000000 0.000000 0.000000
27.762531 68.261679 320.615203 -1.413711 -0.989388 -35.285116 0.242383 -0.380551 35.222455 0.003782 -0.197926 -0.065331 -3.765409 -4.135799 2.963095 0.000000 0.000000 0.000000 0.397791 -0.965730 1.070491 9.382957 4.663024 -2.685568 -2.390413 2.931343 2.173099 2.796896 6.033325 -2.007871 0.000000 0.000000 0.000000 0.000000 0.000000 0.000000 2.409115 -3.564665 -0.019464 1.632699 4.849602 -0.775185 12.250389 11.554873 -7.800990 -16.886505 -1.486864 5.571553 0.000000 0.000000 0.000000 0.000000 0.000000 0.000000 -0.401667 4.912360 34.206454 -1.376124 -9.840422 1.966130 -7.768053 -17.959141 -23.865664 0.000000 0.000000 0.000000 7.595869 14.059920 34.920876 -12.835689 -13.542133 1.559567 -1.801493 2.788700 -3.730083 0.000000 0.000000 0.000000
27.882848 68.019834 320.110026 -1.555311 -1.370287 -35.837295 0.190857 -0.338849 35.762928 -0.002149 -0.186504 -0.073292 -4.490757 -4.559834 3.364979 0.000000 0.000000 0.000000 0.572675 -0.466315 1.027608 10.561605 4.708503 -2.860617 -2.013539 3.770604 2.473667 1.734693 5.805484 -2.272437 0.000000 0.000000 0.000000 0.000000 0.000000 0.000000 2.468164 -4.174475 -0.075982 1.550647 4.338991 -0.677588 15.017142 12.483301 -8.996929 -17.003705 -1.780809 6.056753 0.000000 0.000000 0.000000 0.000000 0.000000 0.000000 -0.456807 4.520803 34.977233 -1.325928 -9.004036 1.644472 -14.186157 -26.719671 -28.370665 0.000000 0.000000 0.000000 9.397508 17.875077 35.062800 -14.434428 -14.625243 1.592671 -0.825463 7.197026 -5.965139 0.000000 0.000000 0.000000
28.067890 67.843573 319.568780 -1.814794 -1.795669 -35.655775 0.154039 -0.316840 35.562428 -0.002502 -0.176866 -0.085742 -4.466305 -4.633858 3.589668 0.000000 0.000000 0.000000 0.875869 0.193373 0.959397 11.726135 4.737771 -2.989702 -1.936991 5.160408 2.931113 -0.052933 4.316034 -2.542999 0.000000 0.000000 0.000000 0.000000 0.000000 0.000000 2.758890 -4.151069 -0.084290 0.251833 1.946170 -0.220851 20.478037 15.249464 -12.055138 -17.940792 -1.830198 6.924367 0.000000 0.000000 0.000000 0.000000 0.000000 0.000000 -0.398120 4.412961 34.960914 -1.322783 -8.313348 1.379612 -14.810774 -27.964758 -25.430304 0.000000 0.000000 0.000000 11.314528 21.204339 34.339350 -14.525926 -15.012375 1.940028 -3.647111 6.884833 -6.011972 0.000000 0.000000 0.000000
28.327629 67.706468 318.979660 -2.131049 -2.164927 -34.616856 0.119126 -0.275634 34.501670 0.004254 -0.159650 -0.098945 -4.319653 -4.872505 3.817993 0.000000 0.000000 0.000000 1.287626 0.852421 0.849503 12.795239 4.926797 -3.062923 -2.338002 5.510928 3.219324 -1.078907 3.178574 -2.738313 0.000000 0.000000 0.000000 0.000000 0.000000 0.000000 3.065699 -4.387545 -0.101775 -1.543154 -0.788792 0.371701 28.218784 23.536069 -19.455840 -19.573042 -7.590820 8.546443 0.000000 0.000000 0.000000 0.000000 0.000000 0.000000 -0.213501 4.488208 34.027209 -1.346157 -7.970958 1.211395 -10.025285 -21.498683 -15.727022 0.000000 0.000000 0.000000 13.376932 23.467985 32.732651 -13.070237 -14.496861 2.536212 -8.950216 3.882800 -4.352906 0.000000 0.000000 0.000000
28.654604 67.594641 318.364908 -2.551917 -2.520601 -32.859532 0.088725 -0.249430 32.715181 0.007203 -0.151453 -0.116870 -3.560979 -5.414895 4.060497 0.000000 0.000000 0.000000 1.789759 1.156508 0.848988 13.575808 5.411068 -3.252808 -2.384967 6.204897 3.519927 -0.895559 3.363491 -3.129804 0.000000 0.000000 0.000000 0.000000 0.000000 0.000000 3.117759 -4.703530 -0.180957 -3.052659 -3.727027 0.962227 36.757176 24.310555 -24.620663 -24.039522 -6.446540 8.975876 0.000000 0.000000 0.000000 0.000000 0.000000 0.000000 0.123404 4.673254 32.345615 -1.336890 -7.722003 1.086249 -4.573289 -9.718806 -5.246098 0.000000 0.000000 0.000000 15.330732 24.666023 30.439112 -10.143879 -13.362812 3.363488 -13.547961 2.811200 -3.248201 0.000000 0.000000 0.000000
29.132432 67.481214 317.803282 -2.964390 -2.892265 -30.394586 0.087458 -0.261992 30.217430 0.018769 -0.167929 -0.134883 -2.722571 -6.090491 4.360622 0.000000 0.000000 0.000000 2.375066 1.251314 0.899701 13.785515 6.192898 -3.472369 -2.318728 6.799463 3.769243 -0.641550 2.521526 -3.497159 0.000000 0.000000 0.000000 0.000000 0.000000 0.000000 2.962178 -4.888242 -0.293131 -3.489176 -6.626508 1.233728 38.558252 25.612733 -26.280089 -27.260441 -1.654465 8.373665 0.000000 0.000000 0.000000 0.000000 0.000000 0.000000 0.332720 4.945553 29.891658 -1.296064 -7.684791 1.009982 -3.221960 -5.056455 -0.610407 0.000000 0.000000 0.000000 16.525272 24.483397 27.653454 -5.453292 -11.797791 4.508199 -18.506142 1.905541 -2.043511 0.000000 0.000000 0.000000
29.757316 67.353852 317.302728 -3.387148 -3.315026 -27.389803 0.095567 -0.284171 27.174369 0.035046 -0.180186 -0.153107 -1.230175 -6.787968 4.587325 0.000000 0.000000 0.000000 2.944437 1.227507 0.999542 13.592703 7.178480 -3.692503 -2.055792 6.726874 3.846815 1.205764 3.939673 -3.833314 0.000000 0.000000 0.000000 0.000000 0.000000 0.000000 2.584076 -5.284601 -0.457848 -3.499458 -9.664076 1.437393 41.231111 34.407853 -32.451438 -28.496929 -3.267874 8.026535 0.000000 0.000000 0.000000 0.000000 0.000000 0.000000 0.464853 5.357019 26.842213 -1.204896 -7.939182 1.001497 -2.707115 -2.046167 3.057342 0.000000 0.000000 0.000000 17.815254 23.903381 24.367874 -1.445443 -10.341271 5.357797 -22.770334 1.375615 -0.308887 0.000000 0.000000 0.000000
30.537102 67.201580 316.809751 -3.840163 -3.783655 -24.181231 0.100201 -0.302152 23.920695 0.053347 -0.191589 -0.172723 0.712298 -7.514677 4.775977 0.000000 0.000000 0.000000 3.127939 1.008621 1.273258 13.542202 8.510739 -4.058572 -2.322382 5.848174 3.826289 4.152806 6.877806 -4.109023 0.000000 0.000000 0.000000 0.000000 0.000000 0.000000 2.236979 -5.756708 -0.630491 -3.439231 -11.056948 1.687176 41.787083 37.943091 -34.254763 -30.951662 1.006527 7.531335 0.000000 0.000000 0.000000 0.000000 0.000000 0.000000 0.429203 5.789241 23.563765 -0.949826 -8.188940 1.001031 -2.422896 -1.187293 4.324998 0.000000 0.000000 0.000000 18.881995 23.098033 20.930797 1.204687 -9.614438 5.974731 -25.436514 1.496145 1.820099 0.000000 0.000000 0.000000
